<svg xmlns="http://www.w3.org/2000/svg" viewBox="0 0 400 230"><defs><linearGradient id="g" x1="0" y1="0" x2="1" y2="1"><stop offset="0" stop-color="#1B2A34"></stop><stop offset="1" stop-color="#0F171D"></stop></linearGradient><radialGradient id="glow" cx="0.5" cy="0.42" r="0.6"><stop offset="0" stop-color="#D6EE4B" stop-opacity="0.18"></stop><stop offset="1" stop-color="#D6EE4B" stop-opacity="0"></stop></radialGradient></defs><rect width="400" height="230" fill="url(#g)"></rect><g stroke="#F2F5F7" stroke-opacity="0.045" stroke-width="1"><line x1="0" y1="0" x2="0" y2="230"></line><line x1="25" y1="0" x2="25" y2="230"></line><line x1="50" y1="0" x2="50" y2="230"></line><line x1="75" y1="0" x2="75" y2="230"></line><line x1="100" y1="0" x2="100" y2="230"></line><line x1="125" y1="0" x2="125" y2="230"></line><line x1="150" y1="0" x2="150" y2="230"></line><line x1="175" y1="0" x2="175" y2="230"></line><line x1="200" y1="0" x2="200" y2="230"></line><line x1="225" y1="0" x2="225" y2="230"></line><line x1="250" y1="0" x2="250" y2="230"></line><line x1="275" y1="0" x2="275" y2="230"></line><line x1="300" y1="0" x2="300" y2="230"></line><line x1="325" y1="0" x2="325" y2="230"></line><line x1="350" y1="0" x2="350" y2="230"></line><line x1="375" y1="0" x2="375" y2="230"></line><line x1="400" y1="0" x2="400" y2="230"></line><line x1="0" y1="0" x2="400" y2="0"></line><line x1="0" y1="25" x2="400" y2="25"></line><line x1="0" y1="50" x2="400" y2="50"></line><line x1="0" y1="75" x2="400" y2="75"></line><line x1="0" y1="100" x2="400" y2="100"></line><line x1="0" y1="125" x2="400" y2="125"></line><line x1="0" y1="150" x2="400" y2="150"></line><line x1="0" y1="175" x2="400" y2="175"></line><line x1="0" y1="200" x2="400" y2="200"></line><line x1="0" y1="225" x2="400" y2="225"></line></g><rect width="400" height="230" fill="url(#glow)"></rect><g fill="#D6EE4B" stroke="#D6EE4B" stroke-width="2"><path d="M142,150 v26 a58,16 0 0 0 116,0 v-26"></path><ellipse cx="200" cy="150" rx="58" ry="16"></ellipse></g><g fill="#16222B" stroke="rgba(242,245,247,0.72)" stroke-width="2"><path d="M142,112 v26 a58,16 0 0 0 116,0 v-26"></path><ellipse cx="200" cy="112" rx="58" ry="16"></ellipse></g><g fill="#16222B" stroke="rgba(242,245,247,0.72)" stroke-width="2"><path d="M142,74 v26 a58,16 0 0 0 116,0 v-26"></path><ellipse cx="200" cy="74" rx="58" ry="16"></ellipse></g><g fill="none" stroke="rgba(242,245,247,0.72)" stroke-width="2"><path d="M300,70 a20,20 0 1 1 6,-38 a26,26 0 0 1 48,10 a18,18 0 0 1 -4,36 z" transform="translate(-8,-2)"></path></g><text x="24" y="205" font-family="Montserrat,sans-serif" font-size="13" font-weight="700" fill="rgba(242,245,247,0.72)">STORAGE</text></svg>